# xmcd
#
# Track frame offsets:
#       150
#       11758
#       21904
#       32037
#       48156
#       66465
#       81725
#       97974
#       113480
#       126764
#       139805
#       156474
#       178422
#       191894
#       207822
#       221968
#       239097
#       252676
#
# Disc length: 3482 seconds
#
# Revision: 1
# Processed by: cddbd v1.5.1PL0 Copyright (c) Steve Scherf et al.
# Submitted via: WhereIsIt 3.65
#
DISCID=1d0d9812
DTITLE=Various Artist - Country toulky 2
DYEAR=1900
DGENRE=Country
TTITLE0=Kdyz prijdou chvile
TTITLE1=Dajana
TTITLE2=Nelly Grey
TTITLE3=Mocal v Sant Louis
TTITLE4=Zatoka
TTITLE5=Cabaleri, zapad hori
TTITLE6=Hrac
TTITLE7=Chvile, kdy jsem byl s ni
TTITLE8=Neni hur, jak se zda
TTITLE9=Slamu v botach nosim
TTITLE10=Slunce shanim
TTITLE11=Do tmy se koukej
TTITLE12=Tulackej sen
TTITLE13=Hrozna cesta
TTITLE14=Mym domovem ztichla je putika
TTITLE15=Niagara
TTITLE16=Ritakado
TTITLE17=Tuhle rundu platim ja
EXTD=
EXTT0=
EXTT1=
EXTT2=
EXTT3=
EXTT4=
EXTT5=
EXTT6=
EXTT7=
EXTT8=
EXTT9=
EXTT10=
EXTT11=
EXTT12=
EXTT13=
EXTT14=
EXTT15=
EXTT16=
EXTT17=
PLAYORDER=
